<svg width="251" height="162" viewBox="0 0 251 162" fill="none" xmlns="http://www.w3.org/2000/svg">
<g clip-path="url(#clip0_303_46)">
<path d="M141.084 25.7057C124.827 15.1366 124.538 13.7294 124.538 13.7294C124.538 13.7294 124.27 15.1366 107.999 25.7057C96.5911 33.1198 99.4431 43.3967 99.4431 43.3967C101.153 42.9678 114.403 42.22 120.93 41.8715C123.333 41.7456 125.742 41.7456 128.145 41.8715C134.672 42.22 147.922 42.9678 149.632 43.3967C149.64 43.386 152.492 33.1198 141.084 25.7057Z" fill="#F6F6F6"/>
<path d="M149.412 52.7622L149.53 46.3935C139.344 43.6647 124.546 44.2705 124.546 44.2705C124.546 44.2705 109.755 43.6647 99.561 46.3935L99.6789 52.7622C99.6789 52.7622 88.7614 53.9765 74.8096 58.8281C74.8096 58.8281 106.351 58.8281 124.546 73.9915C142.741 58.8281 174.281 58.8281 174.281 58.8281C160.33 53.9765 149.412 52.7622 149.412 52.7622Z" fill="#E7BD6A"/>
<path d="M177.766 62.2135C177.766 62.2135 142.497 61.8945 124.538 78.1301C106.578 61.8945 71.325 62.2135 71.325 62.2135C49.7687 63.8325 46 56.2897 46 56.2897C47.82 66.5987 66.015 66.5987 66.015 66.5987C87.8608 68.2687 96.3418 72.0588 96.3418 72.0588C110.28 75.6989 124.546 88.8037 124.546 88.8037C124.546 88.8037 138.798 75.6989 152.749 72.0588C152.749 72.0588 161.23 68.2687 183.076 66.5987C183.076 66.5987 201.271 66.5987 203.091 56.2897C203.091 56.2897 199.322 63.8325 177.766 62.2135Z" fill="#F6F6F6"/>
<path d="M168.229 71.7077C168.229 71.7077 141.317 77.1249 129.99 88.6643L129.839 90.8435C129.839 90.8435 128.939 94.4407 124.54 95.4405C120.142 94.4407 119.241 90.8435 119.241 90.8435L119.091 88.6643C107.769 77.1249 80.846 71.7077 80.846 71.7077C52.7949 66.8829 52.165 76.4655 52.165 76.4655C89.2573 70.3273 115.732 91.0419 115.732 91.0419C117.45 99.5202 124.529 100 124.529 100C124.529 100 131.609 99.5202 133.327 91.0419C133.327 91.0419 159.802 70.3273 196.891 76.4655C196.91 76.4655 196.288 66.8882 168.229 71.7077Z" fill="#E7BD6A"/>
<path d="M129.748 9.00099C129.193 9.68542 128.491 10.2364 127.695 10.6131C126.898 10.9898 126.027 11.1827 125.146 11.1775C121.943 11.1775 119.34 8.67934 119.34 5.58608C119.34 2.49283 121.943 2.70857e-06 125.146 2.70857e-06C125.725 -0.00054373 126.301 0.0815934 126.856 0.243925C124.248 0.964969 122.457 3.04501 122.72 5.25907C123.018 7.77334 125.838 9.49688 129.022 9.11357C129.271 9.09213 129.512 9.04924 129.748 9.00099Z" fill="#E7BD6A"/>
</g>
<path d="M21.867 123H25.107V137H21.867V123ZM34.7495 126.08C36.0829 126.08 37.1562 126.48 37.9695 127.28C38.7962 128.08 39.2095 129.267 39.2095 130.84V137H36.0895V131.32C36.0895 130.467 35.9029 129.833 35.5295 129.42C35.1562 128.993 34.6162 128.78 33.9095 128.78C33.1229 128.78 32.4962 129.027 32.0295 129.52C31.5629 130 31.3295 130.72 31.3295 131.68V137H28.2095V126.24H31.1895V127.5C31.6029 127.047 32.1162 126.7 32.7295 126.46C33.3429 126.207 34.0162 126.08 34.7495 126.08ZM53.1148 122.16V137H50.1348V135.76C49.3615 136.693 48.2415 137.16 46.7748 137.16C45.7615 137.16 44.8415 136.933 44.0148 136.48C43.2015 136.027 42.5615 135.38 42.0948 134.54C41.6282 133.7 41.3948 132.727 41.3948 131.62C41.3948 130.513 41.6282 129.54 42.0948 128.7C42.5615 127.86 43.2015 127.213 44.0148 126.76C44.8415 126.307 45.7615 126.08 46.7748 126.08C48.1482 126.08 49.2215 126.513 49.9948 127.38V122.16H53.1148ZM47.3148 134.6C48.1015 134.6 48.7548 134.333 49.2748 133.8C49.7948 133.253 50.0548 132.527 50.0548 131.62C50.0548 130.713 49.7948 129.993 49.2748 129.46C48.7548 128.913 48.1015 128.64 47.3148 128.64C46.5148 128.64 45.8548 128.913 45.3348 129.46C44.8148 129.993 44.5548 130.713 44.5548 131.62C44.5548 132.527 44.8148 133.253 45.3348 133.8C45.8548 134.333 46.5148 134.6 47.3148 134.6ZM56.0025 126.24H59.1225V137H56.0025V126.24ZM57.5625 124.74C56.9892 124.74 56.5225 124.573 56.1625 124.24C55.8025 123.907 55.6225 123.493 55.6225 123C55.6225 122.507 55.8025 122.093 56.1625 121.76C56.5225 121.427 56.9892 121.26 57.5625 121.26C58.1358 121.26 58.6025 121.42 58.9625 121.74C59.3225 122.06 59.5025 122.46 59.5025 122.94C59.5025 123.46 59.3225 123.893 58.9625 124.24C58.6025 124.573 58.1358 124.74 57.5625 124.74ZM66.3581 126.08C68.0248 126.08 69.3048 126.48 70.1981 127.28C71.0915 128.067 71.5381 129.26 71.5381 130.86V137H68.6181V135.66C68.0315 136.66 66.9381 137.16 65.3381 137.16C64.5115 137.16 63.7915 137.02 63.1781 136.74C62.5781 136.46 62.1181 136.073 61.7981 135.58C61.4781 135.087 61.3181 134.527 61.3181 133.9C61.3181 132.9 61.6915 132.113 62.4381 131.54C63.1981 130.967 64.3648 130.68 65.9381 130.68H68.4181C68.4181 130 68.2115 129.48 67.7981 129.12C67.3848 128.747 66.7648 128.56 65.9381 128.56C65.3648 128.56 64.7981 128.653 64.2381 128.84C63.6915 129.013 63.2248 129.253 62.8381 129.56L61.7181 127.38C62.3048 126.967 63.0048 126.647 63.8181 126.42C64.6448 126.193 65.4915 126.08 66.3581 126.08ZM66.1181 135.06C66.6515 135.06 67.1248 134.94 67.5381 134.7C67.9515 134.447 68.2448 134.08 68.4181 133.6V132.5H66.2781C64.9981 132.5 64.3581 132.92 64.3581 133.76C64.3581 134.16 64.5115 134.48 64.8181 134.72C65.1381 134.947 65.5715 135.06 66.1181 135.06ZM80.9019 126.08C82.2352 126.08 83.3085 126.48 84.1219 127.28C84.9485 128.08 85.3619 129.267 85.3619 130.84V137H82.2419V131.32C82.2419 130.467 82.0552 129.833 81.6819 129.42C81.3085 128.993 80.7685 128.78 80.0619 128.78C79.2752 128.78 78.6485 129.027 78.1819 129.52C77.7152 130 77.4819 130.72 77.4819 131.68V137H74.3619V126.24H77.3419V127.5C77.7552 127.047 78.2685 126.7 78.8819 126.46C79.4952 126.207 80.1685 126.08 80.9019 126.08ZM92.53 126.08C94.1967 126.08 95.4767 126.48 96.37 127.28C97.2633 128.067 97.71 129.26 97.71 130.86V137H94.79V135.66C94.2033 136.66 93.11 137.16 91.51 137.16C90.6833 137.16 89.9633 137.02 89.35 136.74C88.75 136.46 88.29 136.073 87.97 135.58C87.65 135.087 87.49 134.527 87.49 133.9C87.49 132.9 87.8633 132.113 88.61 131.54C89.37 130.967 90.5367 130.68 92.11 130.68H94.59C94.59 130 94.3833 129.48 93.97 129.12C93.5567 128.747 92.9367 128.56 92.11 128.56C91.5367 128.56 90.97 128.653 90.41 128.84C89.8633 129.013 89.3967 129.253 89.01 129.56L87.89 127.38C88.4767 126.967 89.1767 126.647 89.99 126.42C90.8167 126.193 91.6633 126.08 92.53 126.08ZM92.29 135.06C92.8233 135.06 93.2967 134.94 93.71 134.7C94.1233 134.447 94.4167 134.08 94.59 133.6V132.5H92.45C91.17 132.5 90.53 132.92 90.53 133.76C90.53 134.16 90.6833 134.48 90.99 134.72C91.31 134.947 91.7433 135.06 92.29 135.06ZM106.894 126.08C107.894 126.08 108.8 126.313 109.614 126.78C110.44 127.233 111.087 127.88 111.554 128.72C112.02 129.547 112.254 130.513 112.254 131.62C112.254 132.727 112.02 133.7 111.554 134.54C111.087 135.367 110.44 136.013 109.614 136.48C108.8 136.933 107.894 137.16 106.894 137.16C105.52 137.16 104.44 136.727 103.654 135.86V140.88H100.534V126.24H103.514V127.48C104.287 126.547 105.414 126.08 106.894 126.08ZM106.354 134.6C107.154 134.6 107.807 134.333 108.314 133.8C108.834 133.253 109.094 132.527 109.094 131.62C109.094 130.713 108.834 129.993 108.314 129.46C107.807 128.913 107.154 128.64 106.354 128.64C105.554 128.64 104.894 128.913 104.374 129.46C103.867 129.993 103.614 130.713 103.614 131.62C103.614 132.527 103.867 133.253 104.374 133.8C104.894 134.333 105.554 134.6 106.354 134.6ZM119.462 137.16C118.329 137.16 117.309 136.927 116.402 136.46C115.509 135.98 114.809 135.32 114.302 134.48C113.796 133.64 113.542 132.687 113.542 131.62C113.542 130.553 113.796 129.6 114.302 128.76C114.809 127.92 115.509 127.267 116.402 126.8C117.309 126.32 118.329 126.08 119.462 126.08C120.596 126.08 121.609 126.32 122.502 126.8C123.396 127.267 124.096 127.92 124.602 128.76C125.109 129.6 125.362 130.553 125.362 131.62C125.362 132.687 125.109 133.64 124.602 134.48C124.096 135.32 123.396 135.98 122.502 136.46C121.609 136.927 120.596 137.16 119.462 137.16ZM119.462 134.6C120.262 134.6 120.916 134.333 121.422 133.8C121.942 133.253 122.202 132.527 122.202 131.62C122.202 130.713 121.942 129.993 121.422 129.46C120.916 128.913 120.262 128.64 119.462 128.64C118.662 128.64 118.002 128.913 117.482 129.46C116.962 129.993 116.702 130.713 116.702 131.62C116.702 132.527 116.962 133.253 117.482 133.8C118.002 134.333 118.662 134.6 119.462 134.6ZM127.448 122.16H130.568V137H127.448V122.16ZM133.463 126.24H136.583V137H133.463V126.24ZM135.023 124.74C134.45 124.74 133.983 124.573 133.623 124.24C133.263 123.907 133.083 123.493 133.083 123C133.083 122.507 133.263 122.093 133.623 121.76C133.983 121.427 134.45 121.26 135.023 121.26C135.597 121.26 136.063 121.42 136.423 121.74C136.783 122.06 136.963 122.46 136.963 122.94C136.963 123.46 136.783 123.893 136.423 124.24C136.063 124.573 135.597 124.74 135.023 124.74ZM143.099 137.16C142.206 137.16 141.332 137.053 140.479 136.84C139.626 136.613 138.946 136.333 138.439 136L139.479 133.76C139.959 134.067 140.539 134.32 141.219 134.52C141.899 134.707 142.566 134.8 143.219 134.8C144.539 134.8 145.199 134.473 145.199 133.82C145.199 133.513 145.019 133.293 144.659 133.16C144.299 133.027 143.746 132.913 142.999 132.82C142.119 132.687 141.392 132.533 140.819 132.36C140.246 132.187 139.746 131.88 139.319 131.44C138.906 131 138.699 130.373 138.699 129.56C138.699 128.88 138.892 128.28 139.279 127.76C139.679 127.227 140.252 126.813 140.999 126.52C141.759 126.227 142.652 126.08 143.679 126.08C144.439 126.08 145.192 126.167 145.939 126.34C146.699 126.5 147.326 126.727 147.819 127.02L146.779 129.24C145.832 128.707 144.799 128.44 143.679 128.44C143.012 128.44 142.512 128.533 142.179 128.72C141.846 128.907 141.679 129.147 141.679 129.44C141.679 129.773 141.859 130.007 142.219 130.14C142.579 130.273 143.152 130.4 143.939 130.52C144.819 130.667 145.539 130.827 146.099 131C146.659 131.16 147.146 131.46 147.559 131.9C147.972 132.34 148.179 132.953 148.179 133.74C148.179 134.407 147.979 135 147.579 135.52C147.179 136.04 146.592 136.447 145.819 136.74C145.059 137.02 144.152 137.16 143.099 137.16ZM168.728 137L168.708 128.6L164.588 135.52H163.128L159.028 128.78V137H155.988V123H158.668L163.908 131.7L169.068 123H171.728L171.768 137H168.728ZM185.71 126.24V137H182.75V135.72C182.336 136.187 181.843 136.547 181.27 136.8C180.696 137.04 180.076 137.16 179.41 137.16C177.996 137.16 176.876 136.753 176.05 135.94C175.223 135.127 174.81 133.92 174.81 132.32V126.24H177.93V131.86C177.93 133.593 178.656 134.46 180.11 134.46C180.856 134.46 181.456 134.22 181.91 133.74C182.363 133.247 182.59 132.52 182.59 131.56V126.24H185.71ZM192.22 137.16C191.327 137.16 190.453 137.053 189.6 136.84C188.747 136.613 188.067 136.333 187.56 136L188.6 133.76C189.08 134.067 189.66 134.32 190.34 134.52C191.02 134.707 191.687 134.8 192.34 134.8C193.66 134.8 194.32 134.473 194.32 133.82C194.32 133.513 194.14 133.293 193.78 133.16C193.42 133.027 192.867 132.913 192.12 132.82C191.24 132.687 190.513 132.533 189.94 132.36C189.367 132.187 188.867 131.88 188.44 131.44C188.027 131 187.82 130.373 187.82 129.56C187.82 128.88 188.013 128.28 188.4 127.76C188.8 127.227 189.373 126.813 190.12 126.52C190.88 126.227 191.773 126.08 192.8 126.08C193.56 126.08 194.313 126.167 195.06 126.34C195.82 126.5 196.447 126.727 196.94 127.02L195.9 129.24C194.953 128.707 193.92 128.44 192.8 128.44C192.133 128.44 191.633 128.533 191.3 128.72C190.967 128.907 190.8 129.147 190.8 129.44C190.8 129.773 190.98 130.007 191.34 130.14C191.7 130.273 192.273 130.4 193.06 130.52C193.94 130.667 194.66 130.827 195.22 131C195.78 131.16 196.267 131.46 196.68 131.9C197.093 132.34 197.3 132.953 197.3 133.74C197.3 134.407 197.1 135 196.7 135.52C196.3 136.04 195.713 136.447 194.94 136.74C194.18 137.02 193.273 137.16 192.22 137.16ZM199.225 122.16H202.345V137H199.225V122.16ZM205.241 126.24H208.361V137H205.241V126.24ZM206.801 124.74C206.227 124.74 205.761 124.573 205.401 124.24C205.041 123.907 204.861 123.493 204.861 123C204.861 122.507 205.041 122.093 205.401 121.76C205.761 121.427 206.227 121.26 206.801 121.26C207.374 121.26 207.841 121.42 208.201 121.74C208.561 122.06 208.741 122.46 208.741 122.94C208.741 123.46 208.561 123.893 208.201 124.24C207.841 124.573 207.374 124.74 206.801 124.74ZM225.036 126.08C226.383 126.08 227.45 126.48 228.236 127.28C229.036 128.067 229.436 129.253 229.436 130.84V137H226.316V131.32C226.316 130.467 226.136 129.833 225.776 129.42C225.43 128.993 224.93 128.78 224.276 128.78C223.543 128.78 222.963 129.02 222.536 129.5C222.11 129.967 221.896 130.667 221.896 131.6V137H218.776V131.32C218.776 129.627 218.096 128.78 216.736 128.78C216.016 128.78 215.443 129.02 215.016 129.5C214.59 129.967 214.376 130.667 214.376 131.6V137H211.256V126.24H214.236V127.48C214.636 127.027 215.123 126.68 215.696 126.44C216.283 126.2 216.923 126.08 217.616 126.08C218.376 126.08 219.063 126.233 219.676 126.54C220.29 126.833 220.783 127.267 221.156 127.84C221.596 127.28 222.15 126.847 222.816 126.54C223.496 126.233 224.236 126.08 225.036 126.08ZM8.64516 157.24C7.21849 157.24 5.92516 156.933 4.76516 156.32C3.61849 155.693 2.71182 154.833 2.04516 153.74C1.39182 152.633 1.06516 151.387 1.06516 150C1.06516 148.613 1.39182 147.373 2.04516 146.28C2.71182 145.173 3.61849 144.313 4.76516 143.7C5.92516 143.073 7.22516 142.76 8.66516 142.76C9.87849 142.76 10.9718 142.973 11.9452 143.4C12.9318 143.827 13.7585 144.44 14.4252 145.24L12.3452 147.16C11.3985 146.067 10.2252 145.52 8.82516 145.52C7.95849 145.52 7.18516 145.713 6.50516 146.1C5.82516 146.473 5.29182 147 4.90516 147.68C4.53182 148.36 4.34516 149.133 4.34516 150C4.34516 150.867 4.53182 151.64 4.90516 152.32C5.29182 153 5.82516 153.533 6.50516 153.92C7.18516 154.293 7.95849 154.48 8.82516 154.48C10.2252 154.48 11.3985 153.927 12.3452 152.82L14.4252 154.74C13.7585 155.553 12.9318 156.173 11.9452 156.6C10.9585 157.027 9.85849 157.24 8.64516 157.24ZM21.142 157.16C20.0087 157.16 18.9887 156.927 18.082 156.46C17.1887 155.98 16.4887 155.32 15.982 154.48C15.4754 153.64 15.222 152.687 15.222 151.62C15.222 150.553 15.4754 149.6 15.982 148.76C16.4887 147.92 17.1887 147.267 18.082 146.8C18.9887 146.32 20.0087 146.08 21.142 146.08C22.2754 146.08 23.2887 146.32 24.182 146.8C25.0754 147.267 25.7754 147.92 26.282 148.76C26.7887 149.6 27.042 150.553 27.042 151.62C27.042 152.687 26.7887 153.64 26.282 154.48C25.7754 155.32 25.0754 155.98 24.182 156.46C23.2887 156.927 22.2754 157.16 21.142 157.16ZM21.142 154.6C21.942 154.6 22.5954 154.333 23.102 153.8C23.622 153.253 23.882 152.527 23.882 151.62C23.882 150.713 23.622 149.993 23.102 149.46C22.5954 148.913 21.942 148.64 21.142 148.64C20.342 148.64 19.682 148.913 19.162 149.46C18.642 149.993 18.382 150.713 18.382 151.62C18.382 152.527 18.642 153.253 19.162 153.8C19.682 154.333 20.342 154.6 21.142 154.6ZM42.9075 146.08C44.2542 146.08 45.3208 146.48 46.1075 147.28C46.9075 148.067 47.3075 149.253 47.3075 150.84V157H44.1875V151.32C44.1875 150.467 44.0075 149.833 43.6475 149.42C43.3008 148.993 42.8008 148.78 42.1475 148.78C41.4142 148.78 40.8342 149.02 40.4075 149.5C39.9808 149.967 39.7675 150.667 39.7675 151.6V157H36.6475V151.32C36.6475 149.627 35.9675 148.78 34.6075 148.78C33.8875 148.78 33.3142 149.02 32.8875 149.5C32.4608 149.967 32.2475 150.667 32.2475 151.6V157H29.1275V146.24H32.1075V147.48C32.5075 147.027 32.9942 146.68 33.5675 146.44C34.1542 146.2 34.7942 146.08 35.4875 146.08C36.2475 146.08 36.9342 146.233 37.5475 146.54C38.1608 146.833 38.6542 147.267 39.0275 147.84C39.4675 147.28 40.0208 146.847 40.6875 146.54C41.3675 146.233 42.1075 146.08 42.9075 146.08ZM63.8841 146.08C65.2307 146.08 66.2974 146.48 67.0841 147.28C67.8841 148.067 68.2841 149.253 68.2841 150.84V157H65.1641V151.32C65.1641 150.467 64.9841 149.833 64.6241 149.42C64.2774 148.993 63.7774 148.78 63.1241 148.78C62.3907 148.78 61.8107 149.02 61.3841 149.5C60.9574 149.967 60.7441 150.667 60.7441 151.6V157H57.6241V151.32C57.6241 149.627 56.9441 148.78 55.5841 148.78C54.8641 148.78 54.2907 149.02 53.8641 149.5C53.4374 149.967 53.2241 150.667 53.2241 151.6V157H50.1041V146.24H53.0841V147.48C53.4841 147.027 53.9707 146.68 54.5441 146.44C55.1307 146.2 55.7707 146.08 56.4641 146.08C57.2241 146.08 57.9107 146.233 58.5241 146.54C59.1374 146.833 59.6307 147.267 60.0041 147.84C60.4441 147.28 60.9974 146.847 61.6641 146.54C62.3441 146.233 63.0841 146.08 63.8841 146.08ZM81.9206 146.24V157H78.9606V155.72C78.5473 156.187 78.054 156.547 77.4806 156.8C76.9073 157.04 76.2873 157.16 75.6206 157.16C74.2073 157.16 73.0873 156.753 72.2606 155.94C71.434 155.127 71.0206 153.92 71.0206 152.32V146.24H74.1406V151.86C74.1406 153.593 74.8673 154.46 76.3206 154.46C77.0673 154.46 77.6673 154.22 78.1206 153.74C78.574 153.247 78.8006 152.52 78.8006 151.56V146.24H81.9206ZM91.3511 146.08C92.6844 146.08 93.7578 146.48 94.5711 147.28C95.3978 148.08 95.8111 149.267 95.8111 150.84V157H92.6911V151.32C92.6911 150.467 92.5044 149.833 92.1311 149.42C91.7578 148.993 91.2178 148.78 90.5111 148.78C89.7244 148.78 89.0978 149.027 88.6311 149.52C88.1644 150 87.9311 150.72 87.9311 151.68V157H84.8111V146.24H87.7911V147.5C88.2044 147.047 88.7178 146.7 89.3311 146.46C89.9444 146.207 90.6178 146.08 91.3511 146.08ZM98.6392 146.24H101.759V157H98.6392V146.24ZM100.199 144.74C99.6259 144.74 99.1592 144.573 98.7992 144.24C98.4392 143.907 98.2592 143.493 98.2592 143C98.2592 142.507 98.4392 142.093 98.7992 141.76C99.1592 141.427 99.6259 141.26 100.199 141.26C100.773 141.26 101.239 141.42 101.599 141.74C101.959 142.06 102.139 142.46 102.139 142.94C102.139 143.46 101.959 143.893 101.599 144.24C101.239 144.573 100.773 144.74 100.199 144.74ZM111.595 156.48C111.288 156.707 110.908 156.88 110.455 157C110.015 157.107 109.548 157.16 109.055 157.16C107.775 157.16 106.782 156.833 106.075 156.18C105.382 155.527 105.035 154.567 105.035 153.3V148.88H103.375V146.48H105.035V143.86H108.155V146.48H110.835V148.88H108.155V153.26C108.155 153.713 108.268 154.067 108.495 154.32C108.735 154.56 109.068 154.68 109.495 154.68C109.988 154.68 110.408 154.547 110.755 154.28L111.595 156.48ZM123.831 146.24L118.971 157.66C118.478 158.9 117.864 159.773 117.131 160.28C116.411 160.787 115.538 161.04 114.511 161.04C113.951 161.04 113.398 160.953 112.851 160.78C112.304 160.607 111.858 160.367 111.511 160.06L112.651 157.84C112.891 158.053 113.164 158.22 113.471 158.34C113.791 158.46 114.104 158.52 114.411 158.52C114.838 158.52 115.184 158.413 115.451 158.2C115.718 158 115.958 157.66 116.171 157.18L116.211 157.08L111.551 146.24H114.771L117.791 153.54L120.831 146.24H123.831ZM140.208 154H133.708L132.468 157H129.148L135.388 143H138.588L144.848 157H141.448L140.208 154ZM139.188 151.54L136.968 146.18L134.748 151.54H139.188ZM149.603 157.16C148.71 157.16 147.836 157.053 146.983 156.84C146.13 156.613 145.45 156.333 144.943 156L145.983 153.76C146.463 154.067 147.043 154.32 147.723 154.52C148.403 154.707 149.07 154.8 149.723 154.8C151.043 154.8 151.703 154.473 151.703 153.82C151.703 153.513 151.523 153.293 151.163 153.16C150.803 153.027 150.25 152.913 149.503 152.82C148.623 152.687 147.896 152.533 147.323 152.36C146.75 152.187 146.25 151.88 145.823 151.44C145.41 151 145.203 150.373 145.203 149.56C145.203 148.88 145.396 148.28 145.783 147.76C146.183 147.227 146.756 146.813 147.503 146.52C148.263 146.227 149.156 146.08 150.183 146.08C150.943 146.08 151.696 146.167 152.443 146.34C153.203 146.5 153.83 146.727 154.323 147.02L153.283 149.24C152.336 148.707 151.303 148.44 150.183 148.44C149.516 148.44 149.016 148.533 148.683 148.72C148.35 148.907 148.183 149.147 148.183 149.44C148.183 149.773 148.363 150.007 148.723 150.14C149.083 150.273 149.656 150.4 150.443 150.52C151.323 150.667 152.043 150.827 152.603 151C153.163 151.16 153.65 151.46 154.063 151.9C154.476 152.34 154.683 152.953 154.683 153.74C154.683 154.407 154.483 155 154.083 155.52C153.683 156.04 153.096 156.447 152.323 156.74C151.563 157.02 150.656 157.16 149.603 157.16ZM160.228 157.16C159.335 157.16 158.461 157.053 157.608 156.84C156.755 156.613 156.075 156.333 155.568 156L156.608 153.76C157.088 154.067 157.668 154.32 158.348 154.52C159.028 154.707 159.695 154.8 160.348 154.8C161.668 154.8 162.328 154.473 162.328 153.82C162.328 153.513 162.148 153.293 161.788 153.16C161.428 153.027 160.875 152.913 160.128 152.82C159.248 152.687 158.521 152.533 157.948 152.36C157.375 152.187 156.875 151.88 156.448 151.44C156.035 151 155.828 150.373 155.828 149.56C155.828 148.88 156.021 148.28 156.408 147.76C156.808 147.227 157.381 146.813 158.128 146.52C158.888 146.227 159.781 146.08 160.808 146.08C161.568 146.08 162.321 146.167 163.068 146.34C163.828 146.5 164.455 146.727 164.948 147.02L163.908 149.24C162.961 148.707 161.928 148.44 160.808 148.44C160.141 148.44 159.641 148.533 159.308 148.72C158.975 148.907 158.808 149.147 158.808 149.44C158.808 149.773 158.988 150.007 159.348 150.14C159.708 150.273 160.281 150.4 161.068 150.52C161.948 150.667 162.668 150.827 163.228 151C163.788 151.16 164.275 151.46 164.688 151.9C165.101 152.34 165.308 152.953 165.308 153.74C165.308 154.407 165.108 155 164.708 155.52C164.308 156.04 163.721 156.447 162.948 156.74C162.188 157.02 161.281 157.16 160.228 157.16ZM172.353 157.16C171.22 157.16 170.2 156.927 169.293 156.46C168.4 155.98 167.7 155.32 167.193 154.48C166.686 153.64 166.433 152.687 166.433 151.62C166.433 150.553 166.686 149.6 167.193 148.76C167.7 147.92 168.4 147.267 169.293 146.8C170.2 146.32 171.22 146.08 172.353 146.08C173.486 146.08 174.5 146.32 175.393 146.8C176.286 147.267 176.986 147.92 177.493 148.76C178 149.6 178.253 150.553 178.253 151.62C178.253 152.687 178 153.64 177.493 154.48C176.986 155.32 176.286 155.98 175.393 156.46C174.5 156.927 173.486 157.16 172.353 157.16ZM172.353 154.6C173.153 154.6 173.806 154.333 174.313 153.8C174.833 153.253 175.093 152.527 175.093 151.62C175.093 150.713 174.833 149.993 174.313 149.46C173.806 148.913 173.153 148.64 172.353 148.64C171.553 148.64 170.893 148.913 170.373 149.46C169.853 149.993 169.593 150.713 169.593 151.62C169.593 152.527 169.853 153.253 170.373 153.8C170.893 154.333 171.553 154.6 172.353 154.6ZM185.538 157.16C184.392 157.16 183.358 156.927 182.438 156.46C181.532 155.98 180.818 155.32 180.298 154.48C179.792 153.64 179.538 152.687 179.538 151.62C179.538 150.553 179.792 149.6 180.298 148.76C180.818 147.92 181.532 147.267 182.438 146.8C183.358 146.32 184.392 146.08 185.538 146.08C186.672 146.08 187.658 146.32 188.498 146.8C189.352 147.267 189.972 147.94 190.358 148.82L187.938 150.12C187.378 149.133 186.572 148.64 185.518 148.64C184.705 148.64 184.032 148.907 183.498 149.44C182.965 149.973 182.698 150.7 182.698 151.62C182.698 152.54 182.965 153.267 183.498 153.8C184.032 154.333 184.705 154.6 185.518 154.6C186.585 154.6 187.392 154.107 187.938 153.12L190.358 154.44C189.972 155.293 189.352 155.96 188.498 156.44C187.658 156.92 186.672 157.16 185.538 157.16ZM192.155 146.24H195.275V157H192.155V146.24ZM193.715 144.74C193.142 144.74 192.675 144.573 192.315 144.24C191.955 143.907 191.775 143.493 191.775 143C191.775 142.507 191.955 142.093 192.315 141.76C192.675 141.427 193.142 141.26 193.715 141.26C194.288 141.26 194.755 141.42 195.115 141.74C195.475 142.06 195.655 142.46 195.655 142.94C195.655 143.46 195.475 143.893 195.115 144.24C194.755 144.573 194.288 144.74 193.715 144.74ZM202.51 146.08C204.177 146.08 205.457 146.48 206.35 147.28C207.244 148.067 207.69 149.26 207.69 150.86V157H204.77V155.66C204.184 156.66 203.09 157.16 201.49 157.16C200.664 157.16 199.944 157.02 199.33 156.74C198.73 156.46 198.27 156.073 197.95 155.58C197.63 155.087 197.47 154.527 197.47 153.9C197.47 152.9 197.844 152.113 198.59 151.54C199.35 150.967 200.517 150.68 202.09 150.68H204.57C204.57 150 204.364 149.48 203.95 149.12C203.537 148.747 202.917 148.56 202.09 148.56C201.517 148.56 200.95 148.653 200.39 148.84C199.844 149.013 199.377 149.253 198.99 149.56L197.87 147.38C198.457 146.967 199.157 146.647 199.97 146.42C200.797 146.193 201.644 146.08 202.51 146.08ZM202.27 155.06C202.804 155.06 203.277 154.94 203.69 154.7C204.104 154.447 204.397 154.08 204.57 153.6V152.5H202.43C201.15 152.5 200.51 152.92 200.51 153.76C200.51 154.16 200.664 154.48 200.97 154.72C201.29 154.947 201.724 155.06 202.27 155.06ZM217.454 156.48C217.148 156.707 216.768 156.88 216.314 157C215.874 157.107 215.408 157.16 214.914 157.16C213.634 157.16 212.641 156.833 211.934 156.18C211.241 155.527 210.894 154.567 210.894 153.3V148.88H209.234V146.48H210.894V143.86H214.014V146.48H216.694V148.88H214.014V153.26C214.014 153.713 214.128 154.067 214.354 154.32C214.594 154.56 214.928 154.68 215.354 154.68C215.848 154.68 216.268 154.547 216.614 154.28L217.454 156.48ZM219.206 146.24H222.326V157H219.206V146.24ZM220.766 144.74C220.192 144.74 219.726 144.573 219.366 144.24C219.006 143.907 218.826 143.493 218.826 143C218.826 142.507 219.006 142.093 219.366 141.76C219.726 141.427 220.192 141.26 220.766 141.26C221.339 141.26 221.806 141.42 222.166 141.74C222.526 142.06 222.706 142.46 222.706 142.94C222.706 143.46 222.526 143.893 222.166 144.24C221.806 144.573 221.339 144.74 220.766 144.74ZM230.341 157.16C229.208 157.16 228.188 156.927 227.281 156.46C226.388 155.98 225.688 155.32 225.181 154.48C224.675 153.64 224.421 152.687 224.421 151.62C224.421 150.553 224.675 149.6 225.181 148.76C225.688 147.92 226.388 147.267 227.281 146.8C228.188 146.32 229.208 146.08 230.341 146.08C231.475 146.08 232.488 146.32 233.381 146.8C234.275 147.267 234.975 147.92 235.481 148.76C235.988 149.6 236.241 150.553 236.241 151.62C236.241 152.687 235.988 153.64 235.481 154.48C234.975 155.32 234.275 155.98 233.381 156.46C232.488 156.927 231.475 157.16 230.341 157.16ZM230.341 154.6C231.141 154.6 231.795 154.333 232.301 153.8C232.821 153.253 233.081 152.527 233.081 151.62C233.081 150.713 232.821 149.993 232.301 149.46C231.795 148.913 231.141 148.64 230.341 148.64C229.541 148.64 228.881 148.913 228.361 149.46C227.841 149.993 227.581 150.713 227.581 151.62C227.581 152.527 227.841 153.253 228.361 153.8C228.881 154.333 229.541 154.6 230.341 154.6ZM244.867 146.08C246.2 146.08 247.273 146.48 248.087 147.28C248.913 148.08 249.327 149.267 249.327 150.84V157H246.207V151.32C246.207 150.467 246.02 149.833 245.647 149.42C245.273 148.993 244.733 148.78 244.027 148.78C243.24 148.78 242.613 149.027 242.147 149.52C241.68 150 241.447 150.72 241.447 151.68V157H238.327V146.24H241.307V147.5C241.72 147.047 242.233 146.7 242.847 146.46C243.46 146.207 244.133 146.08 244.867 146.08Z" fill="#F6F6F6"/>
<defs>
<clipPath id="clip0_303_46">
<rect width="157.091" height="100" fill="white" transform="translate(46)"/>
</clipPath>
</defs>
</svg>
